<?xml version="1.0" encoding="utf-8"?>
<!-- Generator: Adobe Illustrator 23.0.3, SVG Export Plug-In . SVG Version: 6.00 Build 0)  -->
<svg version="1.1" id="Группа_1" xmlns="http://www.w3.org/2000/svg" xmlns:xlink="http://www.w3.org/1999/xlink" x="0px"
	 y="0px" viewBox="0 0 270 409" style="enable-background:new 0 0 270 409;" xml:space="preserve">
<style type="text/css">
	.st0{fill:#44444F;}
	.st1{fill:none;}
	.st2{fill-rule:evenodd;clip-rule:evenodd;fill:#65E496;}
	.st3{fill:#3D3D47;}
</style>
<path class="st0" d="M268.9,5v399c0,2.8-2.2,5-5,5H5c-2.8,0-5-2.2-5-5V5c0-2.8,2.2-5,5-5h258.9C266.7,0,268.9,2.2,268.9,5z"/>
<line class="st1" x1="268.9" y1="295.2" x2="268.9" y2="283.6"/>
<path class="st2" d="M268.9,283.6v11.5l-13.3,7.7c-2.4,1.4-5.4,0.6-6.8-1.7c-1.4-2.4-0.7-5.4,1.7-6.9c0.1,0,0.1,0,0.1-0.1
	L268.9,283.6z"/>
<path class="st2" d="M268.9,256.6v11.5l-13.3,7.7c-2.4,1.4-5.5,0.6-6.8-1.8c-1.4-2.4-0.6-5.5,1.8-6.8L268.9,256.6z"/>
<rect class="st3" width="37.9" height="409"/>
</svg>
